<svg xmlns="http://www.w3.org/2000/svg" width="34" height="33" viewBox="0 0 34 33">
  <g id="Group_355" data-name="Group 355" transform="translate(0.237)">
    <ellipse id="Ellipse_2383" data-name="Ellipse 2383" cx="17" cy="16.5" rx="17" ry="16.5" transform="translate(-0.237)" fill="#0096f2"/>
    <g id="XMLID_2_" transform="translate(8.729 8.06)">
      <g id="Group_431" data-name="Group 431">
        <g id="Group_430" data-name="Group 430" transform="translate(0)">
          <path id="Path_1228" data-name="Path 1228" d="M37.69,280.944a3.713,3.713,0,0,1-3.005,1.533H32.953a1.383,1.383,0,0,1-1.3-.911,4.39,4.39,0,0,1-.7-.276,4.708,4.708,0,0,1-1.306-.967,5.577,5.577,0,0,0-4.374,5.445v.349a.868.868,0,0,0,.868.868H39.6a.868.868,0,0,0,.868-.868v-.349A5.573,5.573,0,0,0,37.69,280.944Z" transform="translate(-25.274 -269.912)" fill="#fff"/>
          <path id="Path_1229" data-name="Path 1229" d="M92.6,8.623a.987.987,0,0,0,.866-.512l.013.036,0,.011a3.855,3.855,0,0,0,2.174,2.289A1.382,1.382,0,0,1,96.824,9.8h1.731a.969.969,0,0,0,.474-.128,1.957,1.957,0,0,0,.559-.646,4.992,4.992,0,0,0,.433-.915.993.993,0,0,0,.273.315V8.85a1.742,1.742,0,0,1-1.74,1.74H96.824a.593.593,0,1,0,0,1.185h1.731A2.929,2.929,0,0,0,101.48,8.85V8.426a.986.986,0,0,0,.4-.79V5.163a.986.986,0,0,0-.41-.8,4.739,4.739,0,0,0-9.447,0,.986.986,0,0,0-.41.8V7.635A.988.988,0,0,0,92.6,8.623Zm4.146-7.438a3.558,3.558,0,0,1,3.536,3.2.991.991,0,0,0-.278.343,3.382,3.382,0,0,0-6.514-.006l0,.006a.991.991,0,0,0-.278-.343A3.558,3.558,0,0,1,96.742,1.185Z" transform="translate(-89.144)" fill="#fff"/>
        </g>
      </g>
    </g>
  </g>
</svg>
